<?xml version="1.0" standalone="no"?>
<!DOCTYPE svg PUBLIC "-//W3C//DTD SVG 20010904//EN"
 "http://www.w3.org/TR/2001/REC-SVG-20010904/DTD/svg10.dtd">
<svg version="1.0" xmlns="http://www.w3.org/2000/svg"
 width="80px" height="110px" viewBox="0 0 794.000000 614.000000"
 preserveAspectRatio="xMidYMid meet">
<g transform="translate(0.000000,614.000000) scale(0.100000,-0.100000)"
fill="#000000" stroke="none">
<path d="M4425 4451 c-63 -16 -124 -62 -137 -102 -2 -5 -28 -1 -63 11 -269 93
-513 85 -761 -25 -44 -20 -60 -23 -63 -13 -8 27 -79 84 -118 96 -128 38 -257
-18 -319 -141 -45 -87 -41 -173 9 -248 l23 -34 -44 -60 c-63 -85 -138 -246
-168 -362 -66 -252 -32 -559 86 -793 82 -161 296 -449 649 -870 222 -265 352
-411 362 -408 4 2 72 77 150 168 502 581 794 970 880 1169 131 305 124 659
-19 946 -39 79 -120 200 -157 235 l-24 23 19 37 c44 86 31 186 -33 271 -60 78
-183 124 -272 100z m-374 -115 c134 -27 212 -61 217 -95 2 -13 24 -37 52 -57
43 -31 120 -122 175 -207 9 -15 28 -30 40 -33 26 -7 128 -185 176 -309 64
-164 77 -416 30 -555 -31 -89 -89 -185 -153 -250 -76 -79 -392 -265 -564 -334
-153 -61 -216 -49 -458 84 -78 42 -186 101 -241 131 -151 81 -233 176 -293
337 -47 125 -41 377 13 587 32 122 89 254 124 285 16 14 56 66 89 115 36 53
81 105 107 125 25 19 48 44 51 57 10 40 180 122 297 143 73 13 202 4 338 -24z
m629 -443 c63 -87 122 -205 156 -318 26 -85 28 -101 28 -275 0 -172 -2 -191
-27 -271 -37 -121 -69 -189 -131 -283 -102 -153 -240 -271 -407 -350 -154 -73
-236 -90 -424 -90 -144 -1 -170 2 -258 26 -287 80 -514 268 -642 532 -69 142
-97 262 -98 426 -1 203 40 356 138 520 58 98 70 112 89 108 13 -2 9 -13 -20
-53 -153 -214 -208 -527 -137 -790 22 -84 94 -235 147 -309 56 -78 196 -211
269 -254 250 -150 550 -183 817 -92 140 48 249 117 361 229 136 135 223 296
261 481 28 135 21 328 -16 453 -32 106 -88 220 -149 304 -25 33 -43 64 -40 67
16 16 37 0 83 -61z"/>
<path d="M3495 3659 c-25 -22 -40 -47 -51 -88 -9 -31 -29 -76 -44 -101 -16
-25 -40 -70 -54 -100 -59 -126 -12 -250 93 -250 35 0 48 16 80 105 12 33 37
78 57 100 39 46 62 110 71 207 7 80 -7 122 -48 143 -42 22 -64 18 -104 -16z
m95 -169 c14 -26 4 -57 -20 -65 -44 -14 -80 41 -48 73 19 19 56 14 68 -8z"/>
<path d="M4122 3645 c-17 -14 -33 -39 -37 -55 -10 -46 23 -205 51 -243 60 -82
86 -126 101 -175 19 -60 40 -77 87 -68 89 17 123 131 72 243 -15 32 -40 79
-57 104 -16 25 -36 70 -45 100 -31 105 -109 147 -172 94z m106 -147 c17 -17
15 -53 -3 -68 -20 -17 -62 -5 -70 21 -13 40 44 76 73 47z"/>
<path d="M4030 2980 c-14 -4 -45 -19 -70 -34 -54 -31 -78 -32 -128 -7 -44 22
-147 45 -168 37 -8 -3 -14 -19 -14 -40 0 -49 44 -90 112 -106 89 -21 118 -36
118 -62 1 -23 1 -23 15 3 9 16 29 30 57 38 68 21 115 48 142 84 52 68 18 113
-64 87z"/>
<path d="M3463 2901 c12 -94 70 -162 190 -224 87 -44 92 -45 327 -47 43 0 160
56 215 103 42 36 105 137 86 137 -6 0 -11 -4 -11 -9 0 -5 -20 -32 -45 -59 -81
-90 -200 -129 -299 -98 -43 13 -55 13 -108 0 -73 -19 -141 -7 -208 36 -89 57
-130 113 -130 175 0 14 -5 25 -11 25 -8 0 -10 -13 -6 -39z"/>
</g>
</svg>
